<?xml version="1.0" encoding="UTF-8"?>
<svg id="_레이어_1" data-name=" 레이어 1" xmlns="http://www.w3.org/2000/svg" viewBox="0 0 121.48499 85.03802">
  <defs>
    <style>
      .cls-1 {
        opacity: .5;
        stroke-width: 0px;
      }
    </style>
  </defs>
  <path class="cls-1" d="m118.94598,13.27905c-1.40894-5.23889-5.5011-9.33112-10.73999-10.74005C98.73199,0,60.742,0,60.742,0c0,0-37.98901,0-47.46301,2.539C8.0401,3.94794,3.94794,8.04016,2.539,13.27905,0,22.75305,0,42.52002,0,42.52002c0,0,0,19.76599,2.539,29.23999,1.40894,5.23889,5.5011,9.33105,10.73999,10.73999,9.474,2.53802,47.46301,2.53802,47.46301,2.53802,0,0,37.98999,0,47.46399-2.53802,5.23907-1.4093,9.33118-5.50183,10.73999-10.74097,2.539-9.474,2.539-29.23999,2.539-29.23999,0,0,0-19.76599-2.539-29.23999ZM48.59399,60.742V24.297l31.56104,18.22302-31.56104,18.22198Z"/>
</svg>