<?xml version="1.0" encoding="UTF-8"?>
<svg xmlns="http://www.w3.org/2000/svg" version="1.1" viewBox="0 0 16 14">
  <defs>
    <style>
      .cls-1 {
        fill: #fff;
      }

      .cls-2 {
        fill: silver;
      }

      .cls-3 {
        fill: #dfdfdf;
      }

      .cls-4 {
        fill: gray;
      }

      .cls-5 {
        fill: #0a0a0a;
      }
    </style>
  </defs>
  <!-- Generator: Adobe Illustrator 28.6.0, SVG Export Plug-In . SVG Version: 1.2.0 Build 709)  -->
  <g>
    <g id="_레이어_1">
      <g>
        <rect class="cls-5" width="16" height="14"/>
        <rect class="cls-1" width="15" height="13"/>
        <rect class="cls-4" x="1" y="1" width="14" height="12"/>
        <rect class="cls-3" x="1" y="1" width="13" height="11"/>
        <rect class="cls-2" x="2" y="2" width="12" height="10"/>
      </g>
      <g>
        <polygon points="10 3 10 2 6 2 6 3 5 3 5 5 7 5 7 3 9 3 9 5 8 5 8 6 7 6 7 8 9 8 9 6 10 6 10 5 11 5 11 3 10 3"/>
        <rect x="7" y="9" width="2" height="2"/>
      </g>
    </g>
  </g>
</svg>