<?xml version="1.0" encoding="UTF-8"?>
<svg xmlns="http://www.w3.org/2000/svg" version="1.1" viewBox="0 0 16 14">
  <defs>
    <style>
      .cls-1 {
        fill: #fff;
      }

      .cls-2 {
        fill: silver;
      }

      .cls-3 {
        fill: #dfdfdf;
      }

      .cls-4 {
        fill: gray;
      }

      .cls-5 {
        fill: #0a0a0a;
      }
    </style>
  </defs>
  <!-- Generator: Adobe Illustrator 28.6.0, SVG Export Plug-In . SVG Version: 1.2.0 Build 709)  -->
  <g>
    <g id="_레이어_1">
      <g>
        <rect class="cls-5" y="0" width="16" height="14"/>
        <rect class="cls-1" y="0" width="15" height="13"/>
        <rect class="cls-4" x="1" y="1" width="14" height="12"/>
        <rect class="cls-3" x="1" y="1" width="13" height="11"/>
        <rect class="cls-2" x="2" y="2" width="12" height="10"/>
      </g>
      <polygon points="6 9 7 9 7 8 8 8 9 8 9 9 10 9 10 10 12 10 12 9 11 9 11 8 10 8 10 7 9 7 9 6 10 6 10 5 11 5 11 4 12 4 12 3 10 3 10 4 9 4 9 5 8 5 7 5 7 4 6 4 6 3 4 3 4 4 5 4 5 5 6 5 6 6 7 6 7 7 6 7 6 8 5 8 5 9 4 9 4 10 6 10 6 9"/>
    </g>
  </g>
</svg>