<?xml version="1.0" encoding="UTF-8"?>
<svg id="_레이어_1" data-name="레이어_1" xmlns="http://www.w3.org/2000/svg" viewBox="0 0 37 13">
  <defs>
    <style>
      .cls-1 {
        fill: #fff;
      }
    </style>
  </defs>
  <g id="_레이어_1-2" data-name="_레이어_1">
    <g>
      <polygon class="cls-1" points="5 5 6 5 6 4 4 4 4 5 3 5 3 4 1 4 1 5 2 5 2 6 0 6 0 7 2 7 2 8 1 8 1 9 3 9 3 8 4 8 4 9 6 9 6 8 5 8 5 7 7 7 7 6 5 6 5 5"/>
      <path class="cls-1" d="M9,6h1v1h4v-1h1v-1h1v-3h-1v-1h-1V0h-4v1h-1v1h-1v3h1v1ZM10,2h1v-1h2v1h1v3h-1v1h-2v-1h-1v-3Z"/>
      <polygon class="cls-1" points="20 0 18 0 18 7 20 7 20 4 23 4 23 3 20 3 20 0"/>
      <polygon class="cls-1" points="9 9 18 9 18 10 9 10 9 11 9 12 10 12 10 13 20 13 20 12 11 12 11 11 20 11 20 10 20 9 20 8 9 8 9 9"/>
      <polygon class="cls-1" points="25 7 32 7 32 6 26 6 26 4 30 4 32 4 32 1 32 0 24 0 24 1 30 1 30 3 24 3 24 4 24 6 25 6 25 7"/>
      <rect class="cls-1" x="35" width="2" height="7"/>
      <path class="cls-1" d="M25,9v3h1v1h10v-1h1v-4h-12v1ZM27,9h8v3h-8v-3Z"/>
    </g>
  </g>
</svg>