<?xml version="1.0" encoding="UTF-8"?>
<svg xmlns="http://www.w3.org/2000/svg" version="1.1" viewBox="0 0 44 14">
  <!-- Generator: Adobe Illustrator 28.6.0, SVG Export Plug-In . SVG Version: 1.2.0 Build 709)  -->
  <g>
    <g id="_레이어_1">
      <polygon points="0 3 0 13 0 14 4 14 4 13 2 13 2 3 4 3 4 2 0 2 0 3"/>
      <path d="M8,6h1v1h4v-1h1v-1h1v-3h-1v-1h-1V0h-4v1h-1v1h-1v3h1v1ZM9,2h1v-1h2v1h1v3h-1v1h-2v-1h-1v-3Z"/>
      <polygon points="19 0 17 0 17 7 19 7 19 4 22 4 22 3 19 3 19 0"/>
      <polygon points="8 9 17 9 17 10 8 10 8 11 8 12 9 12 9 13 19 13 19 12 10 12 10 11 17 11 19 11 19 9 19 8 8 8 8 9"/>
      <polygon points="24 7 31 7 31 6 25 6 25 4 29 4 31 4 31 1 31 0 23 0 23 1 29 1 29 3 23 3 23 4 23 6 24 6 24 7"/>
      <rect x="34" width="2" height="7"/>
      <path d="M24,9v3h1v1h10v-1h1v-4h-12v1ZM34,9v3h-8v-3h8Z"/>
      <polygon points="40 2 40 3 42 3 42 13 40 13 40 14 42 14 44 14 44 3 44 2 40 2"/>
    </g>
  </g>
</svg>