<?xml version="1.0" encoding="UTF-8"?>
<svg xmlns="http://www.w3.org/2000/svg" version="1.1" viewBox="0 0 124 23">
  <defs>
    <style>
      .cls-1 {
        fill: #fff;
      }

      .cls-2 {
        fill: silver;
      }

      .cls-3 {
        fill: gray;
      }

      .cls-4 {
        fill: #0a0a0a;
      }
    </style>
  </defs>
  <!-- Generator: Adobe Illustrator 28.6.0, SVG Export Plug-In . SVG Version: 1.2.0 Build 709)  -->
  <g>
    <g id="_레이어_1">
      <g>
        <g>
          <polygon class="cls-2" points="57 21 57 7 57 1 30 1 1 1 1 2 1 7 1 11 1 21 30 21 57 21"/>
          <polygon class="cls-1" points="1 21 1 11 1 7 1 2 1 1 30 1 57 1 58 1 58 0 30 0 0 0 0 1 0 7 0 11 0 22 1 22 1 21"/>
          <polygon class="cls-3" points="57 7 57 21 30 21 1 21 1 22 30 22 57 22 58 22 58 7 58 1 57 1 57 7"/>
          <polygon class="cls-4" points="58 0 58 1 58 7 58 22 57 22 30 22 1 22 0 22 0 23 30 23 58 23 59 23 59 7 59 0 58 0"/>
        </g>
        <g>
          <path d="M27,5h-2v6h-5v-1h2v-1h1v-1h-1v-1h1v-1h-3v-1h-2v1h-3v1h1v1h-1v1h1v1h2v1h-3v1h10v1h-9v1h9v4h1v-1h1v-8h3v-1h-3v-3ZM17,9v-1h4v1h-4Z"/>
          <path d="M32,11h1v1h4v-1h1v-1h1v-3h-1v-1h-1v-1h-4v1h-1v1h-1v3h1v1ZM33,7h1v-1h2v1h1v3h-1v1h-2v-1h-1v-3Z"/>
          <rect x="42" y="5" width="2" height="7"/>
          <polygon points="34 13 32 13 32 17 33 17 33 18 44 18 44 17 34 17 34 13"/>
        </g>
      </g>
      <g>
        <g>
          <polygon class="cls-2" points="122 21 122 7 122 1 95 1 66 1 66 2 66 7 66 11 66 21 95 21 122 21"/>
          <polygon class="cls-1" points="66 21 66 11 66 7 66 2 66 1 95 1 122 1 123 1 123 0 95 0 65 0 65 1 65 7 65 11 65 22 66 22 66 21"/>
          <polygon class="cls-3" points="122 7 122 21 95 21 66 21 66 22 95 22 122 22 123 22 123 7 123 1 122 1 122 7"/>
          <polygon class="cls-4" points="123 0 123 1 123 7 123 22 122 22 95 22 66 22 65 22 65 23 95 23 123 23 124 23 124 7 124 0 123 0"/>
        </g>
        <g>
          <polygon points="82 10 83 10 83 9 85 9 85 10 86 10 86 11 88 11 88 10 87 10 87 9 86 9 86 8 85 8 85 7 88 7 88 6 85 6 85 5 83 5 83 6 80 6 80 7 83 7 83 8 82 8 82 9 81 9 81 10 80 10 80 11 82 11 82 10"/>
          <polygon points="91 12 80 12 80 13 83 13 83 18 85 18 85 13 91 13 91 18 93 18 93 5 91 5 91 12"/>
          <polygon points="101 12 101 11 102 11 102 10 104 10 104 11 105 11 105 12 106 12 109 12 109 11 106 11 106 10 105 10 105 9 104 9 104 6 102 6 102 9 101 9 101 10 100 10 100 11 97 11 97 12 100 12 101 12"/>
          <polygon points="104 16 104 13 102 13 102 16 96 16 96 17 102 17 104 17 110 17 110 16 104 16"/>
        </g>
      </g>
    </g>
  </g>
</svg>