<?xml version="1.0" encoding="UTF-8"?>
<svg id="_레이어_1" data-name="레이어_1" xmlns="http://www.w3.org/2000/svg" viewBox="0 0 186 46">
  <defs>
    <style>
      .cls-1 {
        fill: #fff;
      }

      .cls-2 {
        fill: silver;
      }

      .cls-3 {
        fill: gray;
      }

      .cls-4 {
        fill: #0a0a0a;
      }
    </style>
  </defs>
  <g>
    <g>
      <polygon class="cls-2" points="184 32.5 184 18.5 184 12.5 157 12.5 128 12.5 128 13.5 128 18.5 128 22.5 128 32.5 157 32.5 184 32.5"/>
      <polygon class="cls-1" points="128 32.5 128 22.5 128 18.5 128 13.5 128 12.5 157 12.5 184 12.5 185 12.5 185 11.5 157 11.5 127 11.5 127 12.5 127 18.5 127 22.5 127 33.5 128 33.5 128 32.5"/>
      <polygon class="cls-3" points="184 18.5 184 32.5 157 32.5 128 32.5 128 33.5 157 33.5 184 33.5 185 33.5 185 18.5 185 12.5 184 12.5 184 18.5"/>
      <polygon class="cls-4" points="185 11.5 185 12.5 185 18.5 185 33.5 184 33.5 157 33.5 128 33.5 127 33.5 127 34.5 157 34.5 185 34.5 186 34.5 186 18.5 186 11.5 185 11.5"/>
    </g>
    <g>
      <polygon points="144 21.5 145 21.5 145 20.5 147 20.5 147 21.5 148 21.5 148 22.5 150 22.5 150 21.5 149 21.5 149 20.5 148 20.5 148 19.5 147 19.5 147 18.5 150 18.5 150 17.5 147 17.5 147 16.5 145 16.5 145 17.5 142 17.5 142 18.5 145 18.5 145 19.5 144 19.5 144 20.5 143 20.5 143 21.5 142 21.5 142 22.5 144 22.5 144 21.5"/>
      <polygon points="153 23.5 142 23.5 142 24.5 145 24.5 145 29.5 147 29.5 147 24.5 153 24.5 153 29.5 155 29.5 155 16.5 153 16.5 153 23.5"/>
      <polygon points="163 23.5 163 22.5 164 22.5 164 21.5 166 21.5 166 22.5 167 22.5 167 23.5 168 23.5 171 23.5 171 22.5 168 22.5 168 21.5 167 21.5 167 20.5 166 20.5 166 17.5 164 17.5 164 20.5 163 20.5 163 21.5 162 21.5 162 22.5 159 22.5 159 23.5 162 23.5 163 23.5"/>
      <polygon points="166 27.5 166 24.5 164 24.5 164 27.5 158 27.5 158 28.5 164 28.5 166 28.5 172 28.5 172 27.5 166 27.5"/>
    </g>
  </g>
  <g>
    <g>
      <polygon class="cls-2" points="91.96436 31.5 118 31.5 118 18.89996 118 17.5 118 13.5 93 13.5 91.96436 13.5 64 13.5 64 14.39996 64 14.5 64 18.89996 64 19.5 64 22.5 64 23.5 64 31.5 91 31.5 91.96436 31.5"/>
      <polygon class="cls-3" points="118 17.5 118 18.89996 118 31.5 91.96436 31.5 91 31.5 64 31.5 64 32.5 91 32.5 118 32.5 119 32.5 119 17.5 119 13.5 118 13.5 118 17.5"/>
      <polygon class="cls-1" points="63 19.5 63 23.5 63 31.5 63 32.5 64 32.5 64 31.5 64 23.5 64 22.5 64 19.5 64 18.89996 64 14.5 64 14.39996 64 13.5 91.96436 13.5 93 13.5 118 13.5 119 13.5 119 12.5 118 12.5 93 12.5 63 12.5 63 13.5 63 19.5"/>
      <path class="cls-4" d="M62,11.5v23h59V11.5h-59ZM93,12.5h26v20h-56V12.5h30Z"/>
    </g>
    <g>
      <path d="M89,16.5h-2v6h-5v-1h2v-1h1v-1h-1v-1h1v-1h-3v-1h-2v1h-3v1h1v1h-1v1h1v1h2v1h-3v1h10v1h-9v1h9v4h1v-1h1v-8h3v-1h-3v-3ZM79,20.5v-1h4v1h-4Z"/>
      <path d="M94,22.5h1v1h4v-1h1v-1h1v-3h-1v-1h-1v-1h-4v1h-1v1h-1v3h1v1ZM95,18.5h1v-1h2v1h1v3h-1v1h-2v-1h-1v-3Z"/>
      <rect x="104" y="16.5" width="2" height="7"/>
      <polygon points="96 24.5 94 24.5 94 28.5 95 28.5 95 29.5 106 29.5 106 28.5 96 28.5 96 24.5"/>
    </g>
  </g>
</svg>