<?xml version="1.0" encoding="UTF-8"?>
<svg id="_레이어_1" data-name="레이어_1" xmlns="http://www.w3.org/2000/svg" viewBox="0 0 248 46">
  <defs>
    <style>
      .cls-1 {
        fill: #fff;
      }

      .cls-2 {
        fill: silver;
      }

      .cls-3 {
        fill: gray;
      }

      .cls-4 {
        fill: #0a0a0a;
      }
    </style>
  </defs>
  <g>
    <g>
      <rect class="cls-2" x="131" y="1" width="115" height="43"/>
      <polygon class="cls-1" points="219 0 205 0 130 0 130 1 130 22 130 34 130 45 131 45 131 34 131 22 131 21 131 2 131 1 204 1 205 1 219 1 247 1 247 0 219 0"/>
      <polygon class="cls-3" points="246 1 246 24 246 25 246 44 174 44 173 44 131 44 131 45 173 45 246 45 247 45 247 24 247 1 246 1"/>
      <polygon class="cls-4" points="247 0 247 23 247 24 247 45 246 45 173 45 172 45 130 45 130 46 172 46 247 46 248 46 248 23 248 0 247 0"/>
    </g>
    <g>
      <polygon points="163 20 165 20 165 18 169 18 169 20 171 20 171 22 175 22 175 20 173 20 173 18 171 18 171 16 169 16 169 14 175 14 175 12 169 12 169 10 165 10 165 12 159 12 159 14 165 14 165 16 163 16 163 18 161 18 161 20 159 20 159 22 163 22 163 20"/>
      <polygon points="181 24 159 24 159 26 165 26 165 36 169 36 169 26 181 26 181 36 185 36 185 10 181 10 181 24"/>
      <polygon points="201 24 201 22 203 22 203 20 207 20 207 22 209 22 209 24 211 24 217 24 217 22 211 22 211 20 209 20 209 18 207 18 207 12 203 12 203 18 201 18 201 20 199 20 199 22 193 22 193 24 199 24 201 24"/>
      <polygon points="207 32 207 26 203 26 203 32 191 32 191 34 203 34 207 34 219 34 219 32 207 32"/>
    </g>
  </g>
  <g>
    <rect class="cls-2" x="1" y="1" width="115" height="43"/>
    <polygon class="cls-1" points="89 0 75 0 0 0 0 1 0 22 0 34 0 45 1 45 1 34 1 22 1 21 1 2 1 1 74 1 75 1 89 1 117 1 117 0 89 0"/>
    <polygon class="cls-3" points="116 1 116 24 116 25 116 44 44 44 43 44 1 44 1 45 43 45 116 45 117 45 117 24 117 1 116 1"/>
    <polygon class="cls-4" points="117 0 117 23 117 24 117 45 116 45 43 45 42 45 0 45 0 46 42 46 117 46 118 46 118 23 118 0 117 0"/>
    <g>
      <path d="M54,10h-4v12h-10v-2h4v-2h2v-2h-2v-2h2v-2h-6v-2h-4v2h-6v2h2v2h-2v2h2v2h4v2h-6v2h20v2h-18v2h18v8h2v-2h2v-16h6v-2h-6v-6ZM34,18v-2h8v2h-8Z"/>
      <path d="M64,22h2v2h8v-2h2v-2h2v-6h-2v-2h-2v-2h-8v2h-2v2h-2v6h2v2ZM66,14h2v-2h4v2h2v6h-2v2h-4v-2h-2v-6Z"/>
      <rect x="84" y="10" width="4" height="14"/>
      <polygon points="68 26 64 26 64 34 66 34 66 36 88 36 88 34 68 34 68 26"/>
    </g>
  </g>
</svg>