<?xml version="1.0" encoding="UTF-8"?>
<svg xmlns="http://www.w3.org/2000/svg" version="1.1" viewBox="0 0 44 14">
  <defs>
    <style>
      .cls-1 {
        fill: #fff;
      }
    </style>
  </defs>
  <!-- Generator: Adobe Illustrator 28.6.0, SVG Export Plug-In . SVG Version: 1.2.0 Build 709)  -->
  <g>
    <g id="_레이어_1">
      <polygon class="cls-1" points="0 3 0 14 2 14 4 14 4 13 2 13 2 3 4 3 4 2 0 2 0 3"/>
      <polygon class="cls-1" points="12 0 10 0 10 1 7 1 7 2 10 2 10 9 9 9 9 10 8 10 8 11 7 11 7 12 9 12 9 11 10 11 10 10 12 10 12 11 13 11 13 12 15 12 15 11 14 11 14 10 13 10 13 9 12 9 12 2 15 2 15 1 12 1 12 0"/>
      <polygon class="cls-1" points="19 6 18 6 18 0 16 0 16 13 18 13 18 7 19 7 19 13 21 13 21 0 19 0 19 6"/>
      <polygon class="cls-1" points="24 7 31 7 31 6 25 6 25 4 31 4 31 3 25 3 25 1 31 1 31 0 23 0 23 1 23 6 24 6 24 7"/>
      <rect class="cls-1" x="34" width="2" height="7"/>
      <path class="cls-1" d="M34,8h-8v1h-2v3h2v1h8v-1h2v-3h-2v-1ZM34,10v1h-1v1h-6v-1h-1v-1h1v-1h6v1h1Z"/>
      <polygon class="cls-1" points="40 2 40 3 42 3 42 13 40 13 40 14 42 14 44 14 44 3 44 2 40 2"/>
    </g>
  </g>
</svg>