<?xml version="1.0" encoding="UTF-8"?>
<svg id="_레이어_1" data-name="레이어_1" xmlns="http://www.w3.org/2000/svg" viewBox="0 0 16 14">
  <defs>
    <style>
      .cls-1 {
        fill: #fff;
      }

      .cls-2 {
        fill: silver;
      }

      .cls-3 {
        fill: #dfdfdf;
      }

      .cls-4 {
        fill: gray;
      }

      .cls-5 {
        fill: #0a0a0a;
      }
    </style>
  </defs>
  <polygon class="cls-1" points="1 12 1 2 1 1 2 1 14 1 15 1 15 0 1 0 0 0 0 1 0 13 1 13 1 12"/>
  <polygon class="cls-5" points="15 0 15 1 15 12 15 13 14 13 1 13 0 13 0 14 15 14 16 14 16 13 16 0 15 0"/>
  <polygon class="cls-4" points="14 2 14 12 2 12 1 12 1 13 14 13 15 13 15 12 15 1 14 1 14 2"/>
  <polygon class="cls-3" points="2 2 14 2 14 1 2 1 1 1 1 2 1 12 2 12 2 2"/>
  <rect class="cls-2" x="2" y="2" width="12" height="10"/>
  <g>
    <path class="cls-4" d="M12,11V2H3v9h9ZM4,10v-6h7v6h-7Z"/>
    <polygon class="cls-1" points="12 3 12 4 12 11 11 11 4 11 4 12 12 12 13 12 13 3 12 3"/>
    <polygon class="cls-1" points="11 5 11 4 5 4 4 4 4 10 5 10 5 5 11 5"/>
  </g>
</svg>