<?xml version="1.0" encoding="UTF-8"?>
<svg id="_레이어_1" data-name="레이어 1" xmlns="http://www.w3.org/2000/svg" viewBox="0 0 65.36305 75.17061">
  <defs>
    <style>
      .cls-1 {
        fill: #1ac62f;
      }

      .cls-1, .cls-2, .cls-3, .cls-4, .cls-5, .cls-6, .cls-7 {
        stroke-width: 0px;
      }

      .cls-8, .cls-5 {
        opacity: .5;
      }

      .cls-3 {
        fill: #fff;
      }

      .cls-4 {
        fill: #1a1919;
      }

      .cls-6 {
        fill: #00bbed;
      }

      .cls-7 {
        fill: #f2338a;
      }
    </style>
  </defs>
  <path class="cls-5" d="m50.22306,1.28043c.57233,1.15255.10196,2.55083-1.0506,3.12315-.09995.04964-.20334.09203-.30939.12685l-14.10999,6.41c-1.3829.69429-3.02029.65683-4.37-.1l-9.12-4.32c-1.10007-.67824-1.44202-2.11985-.76376-3.21991.047-.07624.09836-.14973.15378-.22009.79315-.99221,2.24045-1.15358,3.23267-.36044.04022.03216.07935.06566.11734.10044l7,5.64c.604.51521,1.41885.70869,2.19.52.2869-.08235.55991-.20706.81-.37L46.91306.34043c1.11005-.67251,2.55508-.31781,3.2276.79223.02924.04825.0567.09754.0824.14777Z"/>
  <g class="cls-8">
    <path class="cls-2" d="m65.21772,38.09946c-1.91248,1.28931-3.6593,2.53253-5.67462,3.78094-1.9126,1.21442-3.89246,2.31952-5.92999,3.31-1.95135,1.0517-4.27246,1.16925-6.32001.32001-1.76093-1.04364-2.88599-2.89618-3-4.94,0,0-.29004-2.78998-.42004-7-.07001-2.56-.09998-5.07996,0-7.60999-.03326-1.93713.94421-3.75189,2.58002-4.78998,1.78302-1.03052,3.95343-1.13849,5.82996-.29004,3,1.33002,6.82001,3.37,6.82001,3.37,1.76642.95911,3.31927,1.80859,5.05206,2.87732-.05402-.37201-.09436-.74579-.15204-1.11731-.17108-.89478-.39142-1.77948-.65997-2.64996-1.35004-4.67004-6.42004-6.67004-6.42004-6.67004-1.68475-.65338-3.40399-1.21423-5.14996-1.67999-6.18286-1.55939-12.53357-2.35529-18.91003-2.37h-.45001c-6.45331.04919-12.87933.84448-19.14996,2.37-1.66791.39117-3.29767.92999-4.87,1.61005-2.63916,1.06915-4.74982,3.10626-5.92285,5.66931,3.21484-1.88892,7.13788-2.65558,11.15283-1.41931,7.54999,2.34998,9.64001,8.63,7.48999,15.81-2.13,7.10999-8.5,10.72998-15.53998,9.50995-2.07709-.35803-3.97876-1.46484-5.57001-2.99036v.00037c-.02429,7.32361.69269,14.63086,2.14001,21.81.23865,1.53961.88037,2.98865,1.85999,4.20001,1.42493,1.87262,3.46448,3.1828,5.76001,3.70001l.5.09998c7.38501,1.4494,14.8941,2.17285,22.41998,2.16003,7.54059.00244,15.06323-.73438,22.46002-2.20001l.35999-.07001c3.85376-.8548,6.85028-3.88647,7.65997-7.75,1.46527-7.21796,2.20233-14.56482,2.20001-21.92999-.00629-1.7085-.06293-3.41541-.14532-5.12097Zm-41.8446,4.51099c-.00525-.06323-.00525-.12677,0-.19v-.25l1-10.70001.04999-.58002c.03003-.17999.10999-.37.10999-.54999.547-2.17273,2.34473-3.80481,4.56-4.14001.26477-.04022.53223-.06024.79999-.06h5.53003c.31165.00092.62274.02771.92999.08002,2.16388.3786,3.90082,1.99792,4.42999,4.13.05945.22668.10291.45721.13.69v.29999l1,10.77002v.42999c-.00415.02313-.00415.04681,0,.07001l.07007.20996c-.00574,2.71289-1.96521,5.02704-4.64001,5.48004-.3006.05182-.60498.07861-.90997.07996h-7.51001c-.47632-.0014-.95032-.06531-1.41003-.19-2.43811-.64398-4.13745-2.84827-4.14001-5.37-.00494-.06989-.00494-.14008,0-.20996Zm26.31995,13.39996c-8.40997,7.85004-26,7.84003-34.20996,0-.52661-.54443-.54144-1.40381-.03381-1.96606.5329-.59033,1.44348-.63684,2.03381-.10394,7.10999,6.81006,22.95996,6.80005,30.26996,0l-.01001-.02997c.00909-.00867.01825-.01721.02759-.02557.58698-.53088,1.49316-.48541,2.02399.10156.53088.58698.48541,1.49316-.10156,2.02399Z"/>
    <path class="cls-6" d="m52.28303,20.88041c-1.87653-.84845-4.04694-.74048-5.82996.29004-1.6358,1.03809-2.61328,2.85284-2.58002,4.78998-.09998,2.53003-.07001,5.04999,0,7.60999.13,4.21002.42004,7,.42004,7,.11401,2.04382,1.23907,3.89636,3,4.94,2.04755.84924,4.36865.73169,6.32001-.32001,2.03754-.99048,4.0174-2.09558,5.92999-3.31,2.01532-1.24841,3.76215-2.49164,5.67462-3.78094-.17737-3.67169-.53406-7.33234-1.06262-10.97174-1.73279-1.06873-3.28564-1.91821-5.05206-2.87732,0,0-3.82001-2.03998-6.82001-3.37Zm1.82007,17.09003c-2.59021,0-4.69-2.09979-4.69-4.69s2.09979-4.69,4.69-4.69,4.69,2.09979,4.69,4.69-2.09979,4.69-4.69,4.69Z"/>
    <path class="cls-3" d="m47.77064,53.88486c-.00934.00836-.01849.01691-.02759.02557l.01001.02997c-7.31,6.80005-23.15997,6.81006-30.26996,0-.59033-.5329-1.50092-.48639-2.03381.10394-.50763.56226-.4928,1.42163.03381,1.96606,8.20996,7.84003,25.79999,7.85004,34.20996,0,.58698-.53082.63245-1.43701.10156-2.02399-.53082-.58698-1.43701-.63245-2.02399-.10156Z"/>
    <path class="cls-1" d="m27.51313,48.1904c.45972.12469.93372.1886,1.41003.19h7.51001c.30499-.00134.60938-.02814.90997-.07996,2.6748-.453,4.63428-2.76715,4.64001-5.48004l-.07007-.20996c-.00415-.02319-.00415-.04688,0-.07001v-.42999l-1-10.77002v-.29999c-.0271-.23279-.07056-.46332-.13-.69-.52917-2.13208-2.26611-3.7514-4.42999-4.13-.30725-.05231-.61835-.0791-.92999-.08002h-5.53003c-.26776-.00024-.53522.01978-.79999.06-2.21527.33521-4.013,1.96729-4.56,4.14001,0,.17999-.07996.37-.10999.54999l-.04999.58002-1,10.70001v.25c-.00525.06323-.00525.12677,0,.19-.00494.06989-.00494.14008,0,.20996.00256,2.52173,1.7019,4.72601,4.14001,5.37Z"/>
    <path class="cls-7" d="m21.11304,36.68046c2.15002-7.17999.06-13.46002-7.48999-15.81-4.01495-1.23627-7.93799-.4696-11.15283,1.41931-.15924.34796-.30359.70435-.42719,1.07068-.2995.90607-.53674,1.83154-.70996,2.76996C.40333,31.77189-.04162,37.48264.00306,43.20005c1.59125,1.52551,3.49292,2.63232,5.57001,2.99036,7.03998,1.22003,13.40997-2.39996,15.53998-9.50995Zm-10.64996-8.09003c2.59021,0,4.69,2.09979,4.69,4.69s-2.09979,4.69-4.69,4.69-4.69-2.09979-4.69-4.69,2.09979-4.69,4.69-4.69Z"/>
    <circle class="cls-4" cx="54.10309" cy="33.28043" r="4.69"/>
    <circle class="cls-4" cx="10.46308" cy="33.28043" r="4.69"/>
  </g>
</svg>
