<?xml version="1.0" encoding="UTF-8"?>
<svg id="_레이어_1" data-name=" 레이어 1" xmlns="http://www.w3.org/2000/svg" viewBox="0 0 121.485 121.49">
  <defs>
    <style>
      .cls-1 {
        fill: red;
      }

      .cls-1, .cls-2 {
        stroke-width: 0px;
      }

      .cls-2 {
        fill: #fff;
      }
    </style>
  </defs>
  <path class="cls-1" d="m118.946,31.505c-1.40894-5.23889-5.50111-9.33106-10.74-10.74-9.474-2.539-47.464-2.539-47.464-2.539,0,0-37.989,0-47.463,2.539-5.23889,1.40894-9.33106,5.50111-10.74,10.74C0,40.979,0,60.746,0,60.746c0,0,0,19.766,2.539,29.24,1.40894,5.23888,5.50111,9.33105,10.74,10.74,9.474,2.538,47.463,2.538,47.463,2.538,0,0,37.99,0,47.464-2.538,5.23904-1.40931,9.33118-5.50183,10.74-10.741,2.539-9.474,2.539-29.24,2.539-29.24,0,0,0-19.766-2.539-29.24Z"/>
  <path class="cls-2" d="m48.594,78.968l31.561-18.222-31.561-18.223s0,36.445,0,36.445Z"/>
</svg>